<svg width="133" height="31" viewBox="0 0 133 31" fill="none" xmlns="http://www.w3.org/2000/svg">
<path d="M13.6475 7.42054C13.5566 6.50388 13.1664 5.79176 12.477 5.28418C11.7876 4.7766 10.852 4.52282 9.67019 4.52282C8.86716 4.52282 8.18913 4.63645 7.6361 4.86373C7.08307 5.08342 6.65882 5.39024 6.36337 5.78418C6.07549 6.17812 5.93155 6.62509 5.93155 7.12509C5.9164 7.54176 6.00352 7.90539 6.19292 8.216C6.38989 8.5266 6.65882 8.79554 6.99973 9.02282C7.34064 9.24251 7.73458 9.4357 8.18155 9.60236C8.62852 9.76145 9.10579 9.89782 9.61337 10.0115L11.7043 10.5115C12.7194 10.7387 13.6512 11.0418 14.4997 11.4205C15.3482 11.7993 16.0831 12.2652 16.7043 12.8183C17.3255 13.3713 17.8066 14.0228 18.1475 14.7728C18.4959 15.5228 18.674 16.3827 18.6816 17.3524C18.674 18.7766 18.3103 20.0115 17.5906 21.0569C16.8785 22.0948 15.8482 22.9016 14.4997 23.4774C13.1588 24.0455 11.5414 24.3296 9.64746 24.3296C7.76867 24.3296 6.13231 24.0418 4.73837 23.466C3.35201 22.8902 2.26867 22.038 1.48837 20.9092C0.715643 19.7728 0.31034 18.3675 0.272461 16.6933H5.03382C5.08686 17.4736 5.31034 18.1251 5.70428 18.6478C6.10579 19.163 6.63989 19.5531 7.30655 19.8183C7.98079 20.0758 8.74216 20.2046 9.59064 20.2046C10.424 20.2046 11.1475 20.0834 11.7611 19.841C12.3823 19.5986 12.8634 19.2615 13.2043 18.8296C13.5452 18.3978 13.7156 17.9016 13.7156 17.341C13.7156 16.8183 13.5603 16.3789 13.2497 16.0228C12.9467 15.6668 12.4997 15.3637 11.9088 15.1137C11.3255 14.8637 10.6096 14.6365 9.7611 14.4319L7.22701 13.7955C5.26489 13.3183 3.71564 12.5721 2.57928 11.5569C1.44292 10.5418 0.878522 9.17433 0.886097 7.45463C0.878522 6.04554 1.25352 4.81448 2.0111 3.76145C2.77625 2.70842 3.82549 1.88645 5.15882 1.29554C6.49216 0.704634 8.00731 0.40918 9.70428 0.40918C11.4316 0.40918 12.9391 0.704634 14.227 1.29554C15.5225 1.88645 16.53 2.70842 17.2497 3.76145C17.9694 4.81448 18.3406 6.03418 18.3634 7.42054H13.6475Z" fill="white"/>
<path d="M29.7867 24.341C27.9988 24.341 26.4609 23.9622 25.173 23.2046C23.8927 22.4395 22.9079 21.3789 22.2185 20.0228C21.5367 18.6668 21.1958 17.1062 21.1958 15.341C21.1958 13.5531 21.5405 11.9849 22.2298 10.6365C22.9268 9.28039 23.9155 8.22357 25.1958 7.466C26.4761 6.70085 27.9988 6.31827 29.7639 6.31827C31.2867 6.31827 32.62 6.59479 33.7639 7.14782C34.9079 7.70085 35.8132 8.47736 36.4798 9.47736C37.1465 10.4774 37.5139 11.6516 37.5821 13.0001H33.0139C32.8852 12.1289 32.5442 11.4281 31.9912 10.8978C31.4458 10.3599 30.7298 10.091 29.8435 10.091C29.0935 10.091 28.4382 10.2955 27.8776 10.7046C27.3245 11.1062 26.8927 11.6933 26.5821 12.466C26.2715 13.2387 26.1162 14.1743 26.1162 15.2728C26.1162 16.3865 26.2677 17.3334 26.5708 18.1137C26.8814 18.894 27.317 19.4887 27.8776 19.8978C28.4382 20.3069 29.0935 20.5115 29.8435 20.5115C30.3965 20.5115 30.8927 20.3978 31.3321 20.1705C31.7791 19.9433 32.1465 19.6137 32.4344 19.1819C32.7298 18.7425 32.923 18.216 33.0139 17.6024H37.5821C37.5064 18.9357 37.1427 20.1099 36.4912 21.1251C35.8473 22.1327 34.9571 22.9205 33.8208 23.4887C32.6844 24.0569 31.3397 24.341 29.7867 24.341Z" fill="white"/>
<path d="M51.8747 16.5683V6.54554H56.7156V24.0001H52.0679V20.8296H51.8861C51.4922 21.8524 50.8369 22.6743 49.9202 23.2955C49.0111 23.9168 47.9013 24.2274 46.5906 24.2274C45.424 24.2274 44.3975 23.9622 43.5111 23.4319C42.6247 22.9016 41.9316 22.1478 41.4316 21.1705C40.9391 20.1933 40.6891 19.0228 40.6816 17.6592V6.54554H45.5225V16.7955C45.53 17.8258 45.8066 18.6402 46.352 19.2387C46.8975 19.8372 47.6285 20.1365 48.5452 20.1365C49.1285 20.1365 49.674 20.0039 50.1816 19.7387C50.6891 19.466 51.0982 19.0645 51.4088 18.5342C51.727 18.0039 51.8823 17.3486 51.8747 16.5683Z" fill="white"/>
<path d="M65.4287 0.727362V24.0001H60.5878V0.727362H65.4287Z" fill="white"/>
<path d="M69.3065 30.5455V6.54554H74.0793V9.47736H74.2952C74.5073 9.00767 74.8141 8.53039 75.2156 8.04554C75.6247 7.55312 76.155 7.14403 76.8065 6.81827C77.4656 6.48494 78.2838 6.31827 79.2611 6.31827C80.5338 6.31827 81.7081 6.6516 82.7838 7.31827C83.8596 7.97736 84.7194 8.97357 85.3634 10.3069C86.0073 11.6327 86.3293 13.2955 86.3293 15.2955C86.3293 17.2425 86.0149 18.8865 85.3861 20.2274C84.7649 21.5607 83.9164 22.5721 82.8406 23.2615C81.7725 23.9433 80.5755 24.2842 79.2497 24.2842C78.3103 24.2842 77.5111 24.1289 76.852 23.8183C76.2005 23.5077 75.6664 23.1175 75.2497 22.6478C74.8331 22.1705 74.5149 21.6895 74.2952 21.2046H74.1475V30.5455H69.3065ZM74.0452 15.2728C74.0452 16.3107 74.1891 17.216 74.477 17.9887C74.7649 18.7615 75.1816 19.3637 75.727 19.7955C76.2725 20.2198 76.9353 20.4319 77.7156 20.4319C78.5035 20.4319 79.1702 20.216 79.7156 19.7842C80.2611 19.3448 80.674 18.7387 80.9543 17.966C81.2422 17.1857 81.3861 16.288 81.3861 15.2728C81.3861 14.2652 81.2459 13.3789 80.9656 12.6137C80.6853 11.8486 80.2725 11.2501 79.727 10.8183C79.1816 10.3865 78.5111 10.1705 77.7156 10.1705C76.9278 10.1705 76.2611 10.3789 75.7156 10.7955C75.1778 11.2122 74.7649 11.8031 74.477 12.5683C74.1891 13.3334 74.0452 14.2349 74.0452 15.2728Z" fill="white"/>
<path d="M98.8406 6.54554V10.1819H88.3293V6.54554H98.8406ZM90.7156 2.36373H95.5565V18.6365C95.5565 19.0834 95.6247 19.4319 95.7611 19.6819C95.8975 19.9243 96.0869 20.0948 96.3293 20.1933C96.5793 20.2918 96.8672 20.341 97.1929 20.341C97.4202 20.341 97.6475 20.3221 97.8747 20.2842C98.102 20.2387 98.2762 20.2046 98.3975 20.1819L99.1588 23.7842C98.9164 23.8599 98.5755 23.9471 98.1361 24.0455C97.6967 24.1516 97.1626 24.216 96.5338 24.2387C95.3672 24.2842 94.3444 24.1289 93.4656 23.7728C92.5944 23.4168 91.9164 22.8637 91.4315 22.1137C90.9467 21.3637 90.7081 20.4168 90.7156 19.2728V2.36373Z" fill="white"/>
<path d="M109.693 24.341C107.928 24.341 106.401 23.966 105.113 23.216C103.833 22.4584 102.844 21.4054 102.147 20.0569C101.45 18.7008 101.102 17.1289 101.102 15.341C101.102 13.538 101.45 11.9622 102.147 10.6137C102.844 9.25767 103.833 8.20463 105.113 7.45463C106.401 6.69706 107.928 6.31827 109.693 6.31827C111.458 6.31827 112.981 6.69706 114.261 7.45463C115.549 8.20463 116.541 9.25767 117.238 10.6137C117.935 11.9622 118.284 13.538 118.284 15.341C118.284 17.1289 117.935 18.7008 117.238 20.0569C116.541 21.4054 115.549 22.4584 114.261 23.216C112.981 23.966 111.458 24.341 109.693 24.341ZM109.716 20.591C110.519 20.591 111.189 20.3637 111.727 19.9092C112.265 19.4471 112.67 18.8183 112.943 18.0228C113.223 17.2274 113.363 16.3221 113.363 15.3069C113.363 14.2918 113.223 13.3865 112.943 12.591C112.67 11.7955 112.265 11.1668 111.727 10.7046C111.189 10.2425 110.519 10.0115 109.716 10.0115C108.905 10.0115 108.223 10.2425 107.67 10.7046C107.125 11.1668 106.712 11.7955 106.432 12.591C106.159 13.3865 106.022 14.2918 106.022 15.3069C106.022 16.3221 106.159 17.2274 106.432 18.0228C106.712 18.8183 107.125 19.4471 107.67 19.9092C108.223 20.3637 108.905 20.591 109.716 20.591Z" fill="white"/>
<path d="M121.432 24.0001V6.54554H126.125V9.591H126.307C126.625 8.50766 127.159 7.68948 127.909 7.13645C128.659 6.57585 129.522 6.29554 130.5 6.29554C130.742 6.29554 131.004 6.3107 131.284 6.341C131.564 6.3713 131.81 6.41297 132.022 6.466V10.7615C131.795 10.6933 131.481 10.6327 131.079 10.5796C130.678 10.5266 130.31 10.5001 129.977 10.5001C129.265 10.5001 128.629 10.6554 128.068 10.966C127.515 11.269 127.075 11.6933 126.75 12.2387C126.432 12.7842 126.272 13.413 126.272 14.1251V24.0001H121.432Z" fill="white"/>
</svg>
